<svg width="42" height="41" viewBox="0 0 42 41" fill="none" xmlns="http://www.w3.org/2000/svg">
<path d="M2.47458 20.8898C2.47458 31.1575 10.7757 39.4884 21.0247 39.4884C31.2737 39.4884 39.5748 31.1575 39.5748 20.8898C39.5748 10.6221 31.2737 2.29126 21.0247 2.29126C10.7757 2.29126 2.47458 10.6221 2.47458 20.8898Z" stroke="#00FFBD" stroke-width="3"/>
<path fill-rule="evenodd" clip-rule="evenodd" d="M25.9631 19.7101C26.2692 20.0109 26.4411 20.4187 26.4411 20.8438C26.4411 21.269 26.2692 21.6767 25.9631 21.9776L19.7996 28.0291C19.4929 28.33 19.0771 28.4989 18.6435 28.4988C18.2099 28.4987 17.7942 28.3296 17.4877 28.0286C17.1812 27.7276 17.0091 27.3195 17.0092 26.894C17.0093 26.4684 17.1816 26.0604 17.4882 25.7595L22.4967 20.8438L17.4882 15.9281C17.1903 15.6257 17.0254 15.2205 17.0289 14.7998C17.0324 14.3792 17.2041 13.9767 17.5071 13.6791C17.81 13.3815 18.2199 13.2126 18.6485 13.2087C19.0771 13.2049 19.49 13.3664 19.7985 13.6585L25.9642 19.709L25.9631 19.7101Z" fill="#E9E9E9"/>
</svg>
