<svg width="99" height="122" viewBox="0 0 99 122" fill="none" xmlns="http://www.w3.org/2000/svg">
<g filter="url(#filter0_di_68_51)">
<path d="M49.5 26.5007H61C67.3513 26.5007 72.5 31.6495 72.5 38.0007C72.5 44.352 67.3513 49.5007 61 49.5007H49.5V26.5007Z" stroke="#00FFBD"/>
<path d="M49.5 49.5H38C31.6487 49.5 26.5 44.3513 26.5 38C26.5 31.6487 31.6487 26.5 38 26.5L49.5 26.5L49.5 49.5Z" stroke="#00FFBD"/>
<path d="M49.5 72.5007H38C31.6487 72.5007 26.5 67.352 26.5 61.0007C26.5 54.6495 31.6487 49.5007 38 49.5007H49.5L49.5 72.5007Z" stroke="#00FFBD"/>
<path d="M49.5 84.0007C49.5 90.352 44.3513 95.5007 38 95.5007C31.6487 95.5007 26.5 90.352 26.5 84.0007C26.5 77.6495 31.6487 72.5007 38 72.5007H49.5L49.5 84.0007Z" stroke="#00FFBD"/>
<path d="M72.5 62.5C72.5 69.1469 67.3322 74.5 61 74.5C54.6678 74.5 49.5 69.1469 49.5 62.5C49.5 55.8531 54.6678 50.5 61 50.5C67.3322 50.5 72.5 55.8531 72.5 62.5Z" stroke="#00FFBD"/>
</g>
<defs>
<filter id="filter0_di_68_51" x="-21" y="-10" width="141" height="141" filterUnits="userSpaceOnUse" color-interpolation-filters="sRGB">
<feFlood flood-opacity="0" result="BackgroundImageFix"/>
<feColorMatrix in="SourceAlpha" type="matrix" values="0 0 0 0 0 0 0 0 0 0 0 0 0 0 0 0 0 0 127 0" result="hardAlpha"/>
<feOffset/>
<feGaussianBlur stdDeviation="13"/>
<feColorMatrix type="matrix" values="0 0 0 0 0 0 0 0 0 1 0 0 0 0 0.740261 0 0 0 1 0"/>
<feBlend mode="normal" in2="BackgroundImageFix" result="effect1_dropShadow_68_51"/>
<feBlend mode="normal" in="SourceGraphic" in2="effect1_dropShadow_68_51" result="shape"/>
<feColorMatrix in="SourceAlpha" type="matrix" values="0 0 0 0 0 0 0 0 0 0 0 0 0 0 0 0 0 0 127 0" result="hardAlpha"/>
<feOffset/>
<feGaussianBlur stdDeviation="10"/>
<feComposite in2="hardAlpha" operator="arithmetic" k2="-1" k3="1"/>
<feColorMatrix type="matrix" values="0 0 0 0 1 0 0 0 0 1 0 0 0 0 1 0 0 0 0.78 0"/>
<feBlend mode="normal" in2="shape" result="effect2_innerShadow_68_51"/>
</filter>
</defs>
</svg>
