<svg width="48" height="48" viewBox="0 0 48 48" fill="none" xmlns="http://www.w3.org/2000/svg">
<g clip-path="url(#clip0_68_115)">
<path d="M48 10.9139V38.7319C48 40.5399 46.536 42.0039 44.728 42.0039H37.09V23.4599L24 33.2799L10.91 23.4599V42.0059H3.272C2.84215 42.0059 2.41651 41.9212 2.0194 41.7567C1.62229 41.5921 1.2615 41.3509 0.95764 41.0469C0.65378 40.7428 0.412808 40.3819 0.248493 39.9847C0.0841768 39.5875 -0.000262135 39.1618 6.11303e-07 38.7319V10.9139C6.11303e-07 6.86793 4.618 4.55793 7.854 6.98593L10.91 9.27993L24 19.0959L37.09 9.27593L40.146 6.98593C43.38 4.55993 48 6.86793 48 10.9139Z" fill="#E9E9E9"/>
</g>
<defs>
<clipPath id="clip0_68_115">
<rect width="48" height="48" fill="white"/>
</clipPath>
</defs>
</svg>
