<svg width="48" height="48" viewBox="0 0 48 48" fill="none" xmlns="http://www.w3.org/2000/svg">
<g clip-path="url(#clip0_68_113)">
<path d="M24 0C17.48 0 16.666 0.03 14.106 0.144C11.55 0.264 9.81 0.666 8.28 1.26C6.702 1.872 5.362 2.694 4.028 4.028C2.694 5.362 1.87 6.7 1.26 8.28C0.666 9.81 0.262 11.55 0.144 14.106C0.024 16.666 0 17.48 0 24C0 30.52 0.03 31.334 0.144 33.894C0.264 36.448 0.666 38.19 1.26 39.72C1.86258 41.3217 2.80719 42.7727 4.028 43.972C5.22655 45.1937 6.6778 46.1384 8.28 46.74C9.812 47.332 11.552 47.738 14.106 47.856C16.666 47.976 17.48 48 24 48C30.52 48 31.334 47.97 33.894 47.856C36.448 47.736 38.19 47.332 39.72 46.74C41.3213 46.1367 42.7722 45.1922 43.972 43.972C45.1941 42.7738 46.1389 41.3224 46.74 39.72C47.332 38.19 47.738 36.448 47.856 33.894C47.976 31.334 48 30.52 48 24C48 17.48 47.97 16.666 47.856 14.106C47.736 11.552 47.332 9.808 46.74 8.28C46.1371 6.67844 45.1926 5.22746 43.972 4.028C42.7743 2.80528 41.3228 1.86038 39.72 1.26C38.19 0.666 36.448 0.262 33.894 0.144C31.334 0.024 30.52 0 24 0ZM24 4.32C30.406 4.32 31.17 4.352 33.7 4.462C36.04 4.572 37.31 4.96 38.154 5.292C39.278 5.726 40.074 6.246 40.918 7.084C41.756 7.924 42.276 8.722 42.71 9.846C43.038 10.69 43.43 11.96 43.536 14.3C43.65 16.832 43.676 17.592 43.676 24C43.676 30.408 43.646 31.17 43.528 33.7C43.406 36.04 43.016 37.31 42.686 38.154C42.2956 39.1955 41.6819 40.1389 40.888 40.918C40.1123 41.7126 39.1695 42.3247 38.128 42.71C37.288 43.038 35.998 43.43 33.658 43.536C31.11 43.65 30.36 43.676 23.94 43.676C17.518 43.676 16.768 43.646 14.222 43.528C11.88 43.406 10.59 43.016 9.75 42.686C8.70781 42.3004 7.76535 41.686 6.992 40.888C6.18916 40.1175 5.57343 39.1734 5.192 38.128C4.862 37.288 4.474 35.998 4.352 33.658C4.262 31.138 4.23 30.36 4.23 23.97C4.23 17.578 4.262 16.798 4.352 14.248C4.474 11.908 4.862 10.62 5.192 9.78C5.612 8.64 6.15 7.86 6.992 7.018C7.83 6.18 8.612 5.64 9.75 5.222C10.59 4.89 11.852 4.5 14.192 4.38C16.742 4.29 17.492 4.26 23.91 4.26L24 4.32ZM24 11.676C22.3816 11.676 20.779 11.9948 19.2838 12.6141C17.7886 13.2334 16.43 14.1412 15.2856 15.2856C14.1412 16.43 13.2334 17.7886 12.6141 19.2838C11.9948 20.779 11.676 22.3816 11.676 24C11.676 25.6184 11.9948 27.221 12.6141 28.7162C13.2334 30.2114 14.1412 31.57 15.2856 32.7144C16.43 33.8588 17.7886 34.7666 19.2838 35.3859C20.779 36.0052 22.3816 36.324 24 36.324C27.2685 36.324 30.4032 35.0256 32.7144 32.7144C35.0256 30.4032 36.324 27.2685 36.324 24C36.324 20.7315 35.0256 17.5968 32.7144 15.2856C30.4032 12.9744 27.2685 11.676 24 11.676ZM24 32C19.58 32 16 28.42 16 24C16 19.58 19.58 16 24 16C28.42 16 32 19.58 32 24C32 28.42 28.42 32 24 32ZM39.692 11.19C39.6642 11.9352 39.3486 12.6407 38.8116 13.1581C38.2745 13.6756 37.5578 13.9647 36.812 13.9647C36.0662 13.9647 35.3495 13.6756 34.8124 13.1581C34.2754 12.6407 33.9598 11.9352 33.932 11.19C33.932 10.4262 34.2354 9.69364 34.7755 9.15353C35.3156 8.61343 36.0482 8.31 36.812 8.31C37.5758 8.31 38.3084 8.61343 38.8485 9.15353C39.3886 9.69364 39.692 10.4262 39.692 11.19Z" fill="#E9E9E9"/>
</g>
<defs>
<clipPath id="clip0_68_113">
<rect width="48" height="48" fill="white"/>
</clipPath>
</defs>
</svg>
