<svg width="204" height="77" viewBox="0 0 204 77" fill="none" xmlns="http://www.w3.org/2000/svg">
<path fill-rule="evenodd" clip-rule="evenodd" d="M86.5662 0.109373C74.793 0.626547 52.5615 2.991 43.9484 4.64296C40.8827 5.23051 40.8525 5.21549 41.6998 3.53269C42.4303 2.08318 42.4142 1.71309 41.5958 1.07255C40.1355 -0.0709267 39.8695 0.0753682 38.0437 3.02105C36.2089 5.98176 35.4554 6.34948 25.8561 8.96461C12.0559 12.7248 2.52027 17.1184 0.687404 20.5615C-1.50073 24.672 1.56754 27.8628 9.42774 29.6524C13.4597 30.5705 13.7642 30.7682 12.638 31.7393C11.9538 32.3292 10.9471 33.8752 10.401 35.1753C9.47785 37.3729 9.50033 37.7224 10.7255 40.162C12.2332 43.1654 15.484 45.9893 19.9682 48.1924L23.075 49.7178L22.7094 54.0672C22.509 56.4593 22.1647 59.7411 21.9443 61.3606C21.4053 65.3217 22.7518 71.8219 24.7016 74.6735C26.0334 76.6228 26.7671 77 29.225 77C31.7909 77 32.4475 76.622 34.4679 73.9855C36.8096 70.9299 37.6043 68.6817 39.4809 59.8004L40.5255 54.858H47.5717C54.916 54.858 57.7967 54.4159 71.1838 51.2377C80.7098 48.9761 80.8434 48.9642 79.0003 50.5537C77.4481 51.8909 77.0723 54.0672 78.3925 54.0672C79.3523 54.0672 81.7229 52.2001 83.9965 49.653C86.0587 47.3431 90.9541 44.3603 96.0081 42.3335C104.394 38.971 111.82 35.0353 123.662 27.6802C124.454 27.1875 125.105 26.5185 125.107 26.1919C125.11 25.8653 125.525 25.5988 126.03 25.5988C126.535 25.5988 127.33 25.1425 127.797 24.5842C128.263 24.0259 129.523 22.8105 130.596 21.8829C131.669 20.9553 132.938 19.2962 133.416 18.1963C134.137 16.5396 134.906 16.111 137.89 15.7029C139.872 15.4317 145.397 14.5484 150.167 13.7394C154.937 12.9304 163.321 11.6999 168.798 11.0064C186.415 8.77324 190.884 8.15247 194.89 7.37829C197.052 6.96154 200.039 6.61993 201.529 6.61993C203.401 6.61993 204.157 6.31626 203.973 5.63856C203.786 4.94583 202.304 4.72362 198.941 4.88494C190.106 5.3088 173.435 7.09123 160.446 9.0002C157.443 9.44225 151.011 10.3082 146.154 10.925C141.297 11.5426 136.753 12.2701 136.057 12.5413C135.101 12.9154 134.694 12.5904 134.392 11.212C133.355 6.48707 125.819 2.34018 116.118 1.15479C108.909 0.273857 94.4669 -0.236992 86.5662 0.109373ZM115.797 4.1155C123.495 5.40369 126.155 6.5361 129.137 9.79256L131.842 12.7485L128.317 13.5915C122.09 15.0798 116.572 16.0437 111.132 16.5933C106.736 17.037 105.629 16.9112 104.684 15.8587C100.157 10.8151 85.8531 9.06109 67.802 11.3354C73.6334 7.89467 56.9506 10.2733 56.1 10.01C55.0445 9.6842 57.7125 11.6264 57.4581 12.4425C56.9519 14.066 53.5206 15.2182 39.5098 18.4691C37.8324 18.8582 36.1697 19.3967 35.8158 19.6663C34.8084 20.4326 35.0256 19.6418 37.1674 14.7437C39.9248 8.43557 39.8772 8.48302 44.01 7.89467C46.0388 7.60604 49.4335 7.02876 51.5535 6.61123C55.2115 5.89161 62.1903 5.10399 78.857 3.52953C88.1562 2.65096 109.024 2.9823 115.797 4.1155ZM32.6351 14.9722C31.5571 17.3904 30.6744 19.8767 30.6744 20.4967C30.6744 21.535 28.5312 22.9908 24.9393 24.3945C23.5067 24.9543 23.4964 24.9053 23.9397 19.5461C24.1864 16.5688 24.7183 13.7172 25.1218 13.2096C25.8696 12.2701 30.4399 10.8119 33.1169 10.6585L34.5958 10.5739L32.6351 14.9722ZM86.3105 13.4144C87.6507 13.8564 87.6519 13.8841 86.4711 16.7333C85.8171 18.3141 85.2813 20.0657 85.2813 20.6256C85.2813 21.2084 84.5246 21.6488 83.5147 21.6536C82.5433 21.6583 80.6314 21.8892 79.2662 22.1668L76.7845 22.6713L77.2349 19.3903C77.6396 16.4423 77.5535 16.1094 76.3868 16.1094C75.1232 16.1094 74.8868 16.6131 74.103 20.968C73.785 22.7385 73.3263 23.1063 71.1144 23.3656C68.7457 23.644 68.535 23.5222 68.8613 22.0656C69.0592 21.1815 69.3997 19.1444 69.6181 17.5383C70.0107 14.652 70.0576 14.6124 73.6334 14.1292C75.623 13.8596 77.6846 13.5251 78.2146 13.3843C79.9138 12.9352 84.9158 12.9533 86.3105 13.4144ZM22.2032 14.3301C22.0786 14.6567 20.8348 17.6807 19.4388 21.0518C16.5864 27.9403 16.6127 27.9269 9.74189 26.2568C6.07165 25.3647 3.04964 23.6559 3.04964 22.4728C3.04964 22.1589 4.56707 21.0028 6.42242 19.9044C13.1269 15.9338 22.9105 12.4781 22.2032 14.3301ZM67.3336 16.7025C66.9964 17.4632 66.5531 19.3832 66.3481 20.9672C66.0179 23.5222 65.7153 23.9089 63.6775 24.3794C62.4139 24.6712 61.2382 24.7353 61.0648 24.5226C60.8919 24.309 61.2183 22.151 61.7907 19.7264C62.8295 15.3297 62.8385 15.3186 65.389 15.3186C67.6298 15.3186 67.8707 15.4902 67.3336 16.7025ZM99.6944 16.0896C102.135 17.2323 101.693 18.4817 98.8477 18.4817C96.8927 18.4817 96.2799 18.1393 96.0164 16.9002C95.6336 15.0972 96.9525 14.8069 99.6944 16.0896ZM58.2798 19.8063C57.0187 24.6973 56.6737 25.1931 54.3796 25.4098C49.3088 25.889 49.7296 22.5092 55.2263 18.6027C57.0784 17.2861 58.6993 16.3379 58.8272 16.4953C58.955 16.6526 58.7083 18.1425 58.2798 19.8063ZM93.245 17.3667C93.8469 19.297 93.1248 20.0633 90.7041 20.0633C88.2918 20.0633 87.9423 19.2733 89.5028 17.3517C90.8044 15.7496 92.7432 15.7575 93.245 17.3667ZM130.252 17.6909C130.252 18.1259 130.017 18.4817 129.731 18.4817C129.444 18.4817 128.646 19.1278 127.957 19.9178C125.647 22.5677 110.485 32.7159 108.837 32.7159C108.532 32.7159 107.371 33.2117 106.258 33.8175C103.938 35.0796 102.831 35.607 98.68 37.4314L95.6965 38.7425L98.68 34.4612C100.321 32.107 102.28 29.8857 103.034 29.5259C103.989 29.0696 104.633 27.7031 105.155 25.0223L105.905 21.1736L111.493 20.1835C114.567 19.6387 119.106 18.8558 121.579 18.4446C126.181 17.6783 128.915 17.1991 129.77 17.0077C130.035 16.9484 130.252 17.256 130.252 17.6909ZM47.4323 24.1003C47.0937 25.1417 46.7982 25.5783 46.7757 25.0706C46.7217 23.8362 47.4702 21.4946 47.792 21.8916C47.9327 22.0648 47.7708 23.058 47.4323 24.1003ZM103.219 23.8195C103.191 25.016 103.025 25.5609 102.851 25.031C102.677 24.5012 101.475 23.8227 100.182 23.5246C98.2187 23.0707 98.0408 22.8801 99.1046 22.3685C99.8049 22.0316 101.029 21.7311 101.824 21.7002C102.995 21.6552 103.26 22.0577 103.219 23.8195ZM41.6741 24.551C41.1146 25.7364 40.9887 25.7704 40.9726 24.7424C40.952 23.4107 41.6279 22.2111 42.0827 22.7718C42.2331 22.9568 42.0493 23.7571 41.6741 24.551ZM38.4793 24.9085C38.0848 26.2204 37.3126 26.6601 34.9665 26.9084C30.6429 27.3654 30.9763 25.2849 35.4367 23.9722C38.7633 22.9932 39.0299 23.0746 38.4793 24.9085ZM20.7834 26.9661C20.1307 27.7703 19.5917 26.5596 20.1275 25.4929C20.5322 24.6863 20.6838 24.6863 20.901 25.4897C21.05 26.0393 20.9967 26.7036 20.7834 26.9661ZM88.4845 25.9808C89.1417 26.9558 88.9721 27.2959 87.481 27.9941C84.8663 29.2175 83.0682 28.6742 82.8272 26.5873C82.6442 25.0002 82.896 24.808 85.158 24.808C86.6157 24.808 88.0303 25.307 88.4845 25.9808ZM78.857 26.0338C78.857 27.095 76.8391 31.1343 76.3085 31.1343C75.314 31.1343 74.8623 29.5583 75.2754 27.5307C75.5607 26.1318 76.1087 25.5988 77.2631 25.5988C78.14 25.5988 78.857 25.7941 78.857 26.0338ZM70.7887 29.6437C69.7158 32.1964 69.0342 32.0097 68.2857 28.9597C67.8983 27.382 68.0744 27.1804 69.8359 27.1804H71.823L70.7887 29.6437ZM98.1815 30.1458C95.1389 34.8044 88.8276 41.296 85.7966 42.8831C80.4245 45.6975 65.1134 49.8372 56.3949 50.8329C50.3682 51.5216 37.6692 50.4034 30.6744 48.568C29.0843 48.1513 27.5335 47.7946 27.229 47.7757C26.6405 47.7385 26.8506 46.062 28.3205 39.0422C30.1463 30.3214 29.7139 30.9192 34.2765 30.8046L36.9143 30.7389L36.3008 33.1113C35.3301 36.8636 34.4448 43.9577 34.8039 45.1091C34.9838 45.6872 35.526 46.1593 36.0085 46.1593C36.8951 46.1593 39.6633 42.7605 40.5325 40.6048C40.7921 39.9627 41.4075 38.5701 41.9009 37.5097L42.7984 35.5817L43.5847 37.7074C44.4854 40.1406 44.966 40.3185 46.0986 38.6381C46.8123 37.5792 46.9973 37.5998 47.7188 38.8145C48.4557 40.0544 48.7069 40.0742 50.3451 39.0209C51.3415 38.3803 53.2303 36.5457 54.5421 34.9436C56.1944 32.9271 56.905 32.4407 56.8536 33.362C56.8125 34.0943 56.9821 35.6711 57.2301 36.8675C57.5731 38.5227 58.0704 39.0422 59.3109 39.0422C61.0166 39.0422 64.4061 35.1934 65.1121 32.4549C65.4455 31.162 65.6472 31.2854 66.7053 33.4268C68.1592 36.3701 69.4029 36.5172 71.4568 33.9891C72.6299 32.5451 73.0725 32.3585 73.3346 33.1983C74.1942 35.9566 80.1271 33.5375 80.1515 30.4187C80.1586 29.5472 80.3115 29.4476 80.6468 30.096C80.9134 30.6132 81.8842 31.3874 82.8041 31.8184C84.9678 32.8306 90.8108 30.8204 91.8907 28.6916C92.5023 27.4856 93.4107 27.1804 96.3878 27.1804H100.118L98.1815 30.1458ZM54.5171 31.3613C53.9922 32.0074 53.802 31.9892 53.802 31.2925C53.802 30.0264 51.8786 30.0652 51.8606 31.332C51.8529 31.8761 51.2811 33.2102 50.5898 34.2975L49.3332 36.2745L49.3191 32.9587L49.305 29.6437L52.0353 29.4001C54.8665 29.1487 55.7486 29.8454 54.5171 31.3613ZM63.4386 29.5441C63.4386 30.3001 62.189 32.3964 60.2553 34.8874C59.0501 36.4381 58.6659 35.1674 59.2267 31.487C59.5891 29.1107 59.8852 28.762 61.5402 28.762C62.5841 28.762 63.4386 29.1139 63.4386 29.5441ZM26.1066 31.5748C26.246 31.7464 25.452 33.0306 24.3412 34.4288L22.3227 36.9703V33.5708C22.3227 30.2589 22.3677 30.1862 24.0881 30.7176C25.0588 31.0173 25.9672 31.4032 26.1066 31.5748ZM42.2382 31.0877C42.2382 31.4973 42.0056 32.0089 41.7204 32.2256C41.4358 32.4423 40.3854 34.6091 39.3851 37.0415C38.3855 39.474 37.4353 41.3015 37.2734 41.103C36.7903 40.5075 39.0935 31.5772 39.8927 30.9485C40.9366 30.1285 42.2382 30.2059 42.2382 31.0877ZM45.2467 32.0738C45.0418 32.704 44.8895 32.5166 44.8587 31.5954C44.8311 30.7619 44.9827 30.2953 45.196 30.5579C45.4092 30.8204 45.4324 31.5028 45.2467 32.0738ZM19.6547 35.0906C19.6682 37.2661 19.8577 39.4012 20.0755 39.8354C20.6877 41.0555 23.0564 40.7677 24.3599 39.315C25.2361 38.3392 25.5349 38.2744 25.5349 39.0612C25.5349 39.9753 24.2461 45.2357 23.8215 46.0541C23.5086 46.6583 15.9452 41.9151 15.6349 40.9203C15.042 39.0169 17.8513 31.1343 19.1227 31.1343C19.4015 31.1343 19.6405 32.9144 19.6547 35.0906ZM30.6744 52.0902C32.6177 52.7323 35.0121 53.2621 35.9944 53.2669C38.2673 53.2788 38.6078 54.4468 37.736 59.235C36.8867 63.9022 35.4798 67.83 33.4285 71.2668C32.2014 73.3221 31.4408 73.8369 29.6323 73.8369C28.3879 73.8369 27.0099 73.3924 26.5698 72.8484C25.3974 71.4004 24.25 66.889 24.25 63.7274C24.25 59.3148 25.6936 50.9032 26.4491 50.9135C26.8294 50.9183 28.731 51.4481 30.6744 52.0902Z" fill="#00FFBD"/>
</svg>
