<svg width="121" height="121" viewBox="0 0 121 121" fill="none" xmlns="http://www.w3.org/2000/svg">
<g filter="url(#filter0_di_68_31)">
<path d="M86.4583 27.125H34.5417C32.5746 27.125 30.6882 27.9064 29.2973 29.2973C27.9064 30.6882 27.125 32.5746 27.125 34.5417V86.4583C27.125 88.4254 27.9064 90.3118 29.2973 91.7027C30.6882 93.0936 32.5746 93.875 34.5417 93.875H86.4583C88.4254 93.875 90.3118 93.0936 91.7027 91.7027C93.0936 90.3118 93.875 88.4254 93.875 86.4583V34.5417C93.875 32.5746 93.0936 30.6882 91.7027 29.2973C90.3118 27.9064 88.4254 27.125 86.4583 27.125Z" stroke="#00FFBD" stroke-width="1.5" stroke-linecap="round" stroke-linejoin="round"/>
<path d="M54.5667 38.25H40.475C39.8849 38.25 39.319 38.4844 38.9017 38.9017C38.4844 39.319 38.25 39.8849 38.25 40.475V80.525C38.25 81.1151 38.4844 81.681 38.9017 82.0983C39.319 82.5156 39.8849 82.75 40.475 82.75H54.5667C55.1568 82.75 55.7227 82.5156 56.14 82.0983C56.5572 81.681 56.7917 81.1151 56.7917 80.525V40.475C56.7917 39.8849 56.5572 39.319 56.14 38.9017C55.7227 38.4844 55.1568 38.25 54.5667 38.25ZM80.525 38.25H66.4333C65.8432 38.25 65.2773 38.4844 64.86 38.9017C64.4428 39.319 64.2083 39.8849 64.2083 40.475V65.6917C64.2083 66.2818 64.4428 66.8477 64.86 67.265C65.2773 67.6822 65.8432 67.9167 66.4333 67.9167H80.525C81.1151 67.9167 81.681 67.6822 82.0983 67.265C82.5156 66.8477 82.75 66.2818 82.75 65.6917V40.475C82.75 39.8849 82.5156 39.319 82.0983 38.9017C81.681 38.4844 81.1151 38.25 80.525 38.25Z" stroke="#00FFBD" stroke-width="1.5" stroke-linecap="round" stroke-linejoin="round"/>
</g>
<defs>
<filter id="filter0_di_68_31" x="-10" y="-10" width="141" height="141" filterUnits="userSpaceOnUse" color-interpolation-filters="sRGB">
<feFlood flood-opacity="0" result="BackgroundImageFix"/>
<feColorMatrix in="SourceAlpha" type="matrix" values="0 0 0 0 0 0 0 0 0 0 0 0 0 0 0 0 0 0 127 0" result="hardAlpha"/>
<feOffset/>
<feGaussianBlur stdDeviation="13"/>
<feColorMatrix type="matrix" values="0 0 0 0 0 0 0 0 0 1 0 0 0 0 0.740261 0 0 0 1 0"/>
<feBlend mode="normal" in2="BackgroundImageFix" result="effect1_dropShadow_68_31"/>
<feBlend mode="normal" in="SourceGraphic" in2="effect1_dropShadow_68_31" result="shape"/>
<feColorMatrix in="SourceAlpha" type="matrix" values="0 0 0 0 0 0 0 0 0 0 0 0 0 0 0 0 0 0 127 0" result="hardAlpha"/>
<feOffset/>
<feGaussianBlur stdDeviation="10"/>
<feComposite in2="hardAlpha" operator="arithmetic" k2="-1" k3="1"/>
<feColorMatrix type="matrix" values="0 0 0 0 1 0 0 0 0 1 0 0 0 0 1 0 0 0 0.78 0"/>
<feBlend mode="normal" in2="shape" result="effect2_innerShadow_68_31"/>
</filter>
</defs>
</svg>
