<svg width="123" height="123" viewBox="0 0 123 123" fill="none" xmlns="http://www.w3.org/2000/svg">
<g filter="url(#filter0_di_68_38)">
<path d="M92.0937 27.198H30.9062C29.9227 27.198 28.9795 27.5887 28.284 28.2841C27.5886 28.9796 27.1979 29.9228 27.1979 30.9063V92.0938C27.1979 93.0773 27.5886 94.0206 28.284 94.716C28.9795 95.4115 29.9227 95.8022 30.9062 95.8022H92.0937C93.0772 95.8022 94.0205 95.4115 94.7159 94.716C95.4113 94.0206 95.802 93.0773 95.802 92.0938V30.9063C95.802 29.9228 95.4113 28.9796 94.7159 28.2841C94.0205 27.5887 93.0772 27.198 92.0937 27.198Z" stroke="#00FFBD" stroke-linecap="round" stroke-linejoin="round"/>
<path d="M36.7098 43.0325L49.0586 61.5M49.0586 61.5L36.7098 79.9675M49.0586 61.5L61.3888 43.0325M49.0586 61.5L61.3888 79.9675M86.2903 43.0325V79.9675" stroke="#00FFBD" stroke-linecap="round" stroke-linejoin="round"/>
<path d="M67.8227 70.7338C67.8227 75.8334 71.9568 79.9675 77.0564 79.9675C82.1561 79.9675 86.2902 75.8334 86.2902 70.7338V65.1898C86.2902 60.0902 82.1561 55.9561 77.0564 55.9561C71.9568 55.9561 67.8227 60.0902 67.8227 65.1898V70.7338Z" stroke="#00FFBD" stroke-linecap="round" stroke-linejoin="round"/>
</g>
<defs>
<filter id="filter0_di_68_38" x="-9" y="-9" width="141" height="141" filterUnits="userSpaceOnUse" color-interpolation-filters="sRGB">
<feFlood flood-opacity="0" result="BackgroundImageFix"/>
<feColorMatrix in="SourceAlpha" type="matrix" values="0 0 0 0 0 0 0 0 0 0 0 0 0 0 0 0 0 0 127 0" result="hardAlpha"/>
<feOffset/>
<feGaussianBlur stdDeviation="13"/>
<feColorMatrix type="matrix" values="0 0 0 0 0 0 0 0 0 1 0 0 0 0 0.740261 0 0 0 1 0"/>
<feBlend mode="normal" in2="BackgroundImageFix" result="effect1_dropShadow_68_38"/>
<feBlend mode="normal" in="SourceGraphic" in2="effect1_dropShadow_68_38" result="shape"/>
<feColorMatrix in="SourceAlpha" type="matrix" values="0 0 0 0 0 0 0 0 0 0 0 0 0 0 0 0 0 0 127 0" result="hardAlpha"/>
<feOffset/>
<feGaussianBlur stdDeviation="10"/>
<feComposite in2="hardAlpha" operator="arithmetic" k2="-1" k3="1"/>
<feColorMatrix type="matrix" values="0 0 0 0 1 0 0 0 0 1 0 0 0 0 1 0 0 0 0.78 0"/>
<feBlend mode="normal" in2="shape" result="effect2_innerShadow_68_38"/>
</filter>
</defs>
</svg>
